<?xml version="1.0" encoding="utf-8"?> <svg width="48" height="48" viewBox="0 0 48 48" xmlns="http://www.w3.org/2000/svg"><path class="filled" style="fill:#333" d="M16.85,23.94c0-2.64,0-5.28,0-7.91,0-.63.14-.87.82-.84,2.72.1,5.45-.17,8.16.18,5.81.76,9.11,5.92,7.29,11.45-1.1,3.34-3.62,5.1-6.95,5.71-2.92.54-5.9.16-8.85.24-.57,0-.45-.42-.45-.74C16.85,29.33,16.85,26.64,16.85,23.94Zm4.88,0c0,1.3,0,2.6,0,3.9,0,.42.11.65.58.63.75,0,1.51,0,2.25,0a4.15,4.15,0,0,0,4-4.13A4.19,4.19,0,0,0,25,19.65a19.53,19.53,0,0,0-2.59-.13c-.62,0-.73.24-.72.76C21.75,21.49,21.73,22.7,21.73,23.92Z"></path><path class="filled" style="fill:#333" d="M46,24A22,22,0,1,1,24,2,22,22,0,0,1,46,24ZM23.91,7.91A16.09,16.09,0,1,0,40,24,16.09,16.09,0,0,0,23.91,7.91Z"></path></svg> 