<?xml version="1.0" encoding="utf-8"?> <svg width="48" height="48" viewBox="0 0 24 24" xmlns="http://www.w3.org/2000/svg"><path class="filled" style="fill:#333" d="M6.9,18.3c-1.7-0.1-3.3-0.4-4.9-1.1c-0.4-0.2-0.8-0.3-1.2-0.4c-0.1,0-0.3,0-0.4,0c-0.2,0-0.4-0.2-0.4-0.4 c0-2.8,0-5.5,0-8.2C0,8,0.1,7.8,0.4,7.8c0.5,0,0.9-0.2,1.3-0.4c0.5-0.3,1.1-0.6,1.6-0.8C4.1,6.2,5,6,6,5.9c0.6-0.1,1.2-0.2,1.8-0.2 h0.1c0.5,0,1,0,1.5,0c0.2,0,0.5,0,0.7,0c0.7,0,1.4,0,2.1,0c0.1,0,0.2,0.1,0.3,0.1C13,6,13.6,6.3,14.1,6.5c0,0.1,0.1,0.1,0.2,0.1 c2.7,0,5.3,0,7.9,0c0.8,0,1.4,0.5,1.7,1.2C23.9,7.8,24,8,24,8.1s0,0.2,0,0.3s0,0.2,0,0.5c-0.2,0.7-0.9,1.3-1.7,1.3 c-1.9,0-3.7,0-5.5,0c-0.1,0-0.1,0-0.2,0c0.3,0.5,0.3,1,0.1,1.6c-0.2,0.5-0.6,0.8-1.2,1c0.3,0.5,0.4,1,0.2,1.6s-0.6,0.9-1.2,1.1 c0.2,0.3,0.3,0.6,0.3,1c0,0.8-0.7,1.6-1.5,1.7c-0.1,0-0.1,0-0.1,0c-1.9,0-3.7,0-5.6,0C7.3,18.2,7.1,18.2,6.9,18.3z"></path></svg> 