<?xml version="1.0" encoding="utf-8"?> <svg width="48" height="48" viewBox="0 0 24 24" xmlns="http://www.w3.org/2000/svg"><path class="filled" style="fill:#333" d="M54.8,17.5c0-5.2,0-10.5,0-15.7c0-0.1,0.1-0.2,0.1-0.3c0.1-0.3,0.2-0.6,0.5-0.8c0.4-0.3,0.9-0.5,1.4-0.5 c0.1,0,0.3,0,0.4-0.1C63.6,0,70,0,76.5,0c0.1,0,0.3,0,0.4,0.1c0.4,0.1,0.8,0.2,1.2,0.4c0.3,0.2,0.5,0.5,0.6,0.9 c0,0.1,0.1,0.2,0.1,0.3c0,5.2,0,10.5,0,15.7c-0.1,0.2-0.1,0.5-0.2,0.7c-0.2,0.4-0.4,0.6-0.8,0.7c-0.5,0.2-1.1,0.3-1.7,0.3 c-1.2,0-2.3,0-3.5,0c-0.1,0-0.1,0-0.2,0c0,1.6,0,3.2,0,4.8c0,0,0,0,0,0c0,0,0,0,0,0c-0.9-0.7-1.9-1.4-2.8-2.1 c-1.1-0.9-2.3-1.7-3.4-2.6c-0.1,0-0.2-0.1-0.2-0.1c-2.5,0-4.9,0-7.4,0c-0.6,0-1.1,0-1.7-0.1c-0.4,0-0.8-0.2-1.2-0.4 c-0.3-0.2-0.6-0.5-0.6-1C54.9,17.7,54.8,17.6,54.8,17.5z M66.8,8.4c-2.4,0-4.7,0-7.1,0c-0.2,0-0.4,0-0.7,0c-0.1,0-0.3,0.1-0.3,0.2 c0,0.2,0,0.5,0,0.7c0,0.4,0,0.9,0,1.3c0,0.2,0.1,0.2,0.2,0.2c0.2,0,0.4,0,0.5,0c4.7,0,9.5,0,14.2,0c0.3,0,0.5,0,0.8,0 c0.1,0,0.3-0.1,0.3-0.2c0-0.2,0-0.5,0-0.7c0-0.4,0-0.8,0-1.3c0-0.2-0.1-0.2-0.2-0.2c-0.2,0-0.3,0-0.5,0C71.7,8.4,69.2,8.4,66.8,8.4z "></path><path class="filled" style="fill:#333" d="M6.9,24c0-1.6,0-3.3,0-4.9c-0.1,0-0.1,0-0.2,0c-1.1,0-2.1,0-3.2,0C3,19.1,2.5,19,2,18.8c-0.3-0.1-0.5-0.3-0.7-0.6 C1.1,17.8,1,17.4,1,17C1,12,1,7,1,2c0-0.5,0.2-1,0.5-1.3c0.3-0.3,0.7-0.4,1-0.5C2.8,0.1,3.1,0,3.4,0c5.7,0,11.5,0,17.2,0 c0.5,0,1.1,0.1,1.5,0.4c0.2,0.1,0.4,0.4,0.6,0.6c0.1,0.2,0.1,0.4,0.2,0.7C23,2,23,2.2,23,2.5c0,4.9,0,9.8,0,14.6 c0,0.6-0.2,1.2-0.8,1.5c-0.3,0.2-0.6,0.3-1,0.3c-0.6,0-1.2,0.1-1.8,0.1c-2.1,0-4.2,0-6.3,0c-0.2,0-0.3,0-0.5,0.2 c-0.7,0.6-1.4,1.2-2.2,1.8c-0.8,0.7-1.6,1.3-2.4,1.9C7.7,23.3,7.3,23.6,6.9,24z M13.5,8.1c0-0.1,0-0.1,0-0.2c0-1.3,0-2.7,0-4 c0,0,0-0.1,0-0.1c0-0.3-0.1-0.4-0.3-0.4c-0.1,0-0.2,0-0.3,0c-0.7,0-1.4,0-2.2,0c-0.1,0-0.2,0.1-0.2,0.2c0,0.1,0,0.3,0,0.4 c0,1.3,0,2.6,0,3.9c0,0.1,0,0.1,0,0.2c-0.1,0-0.1,0-0.2,0c-1.7,0-3.4,0-5.1,0c0,0-0.1,0-0.1,0c-0.3,0-0.4,0.1-0.4,0.4 c0,0.6,0,1.2,0,1.8c0,0.2,0.1,0.3,0.2,0.3c0.2,0,0.4,0,0.6,0c1.6,0,3.2,0,4.8,0c0.1,0,0.1,0,0.2,0c0,0.1,0,0.1,0,0.2 c0,0.7,0,1.3,0,2c0,0.7,0,1.4,0,2c0,0.4,0,0.5,0.5,0.5c0.1,0,0.3,0,0.4,0c0.6,0,1.2,0,1.8,0c0.1,0,0.3,0,0.3-0.2c0-0.1,0-0.3,0-0.4 c0-1.3,0-2.6,0-4c0-0.1,0-0.1,0-0.2c0.1,0,0.1,0,0.2,0c1.2,0,2.5,0,3.7,0c0.6,0,1.1,0,1.7,0c0.3,0,0.3-0.1,0.3-0.3 c0-0.6,0-1.2,0-1.7c0-0.3,0-0.3-0.3-0.4c-0.1,0-0.1,0-0.2,0c-1.7,0-3.4,0-5.1,0C13.6,8.1,13.6,8.1,13.5,8.1z"></path></svg> 