<?xml version="1.0" encoding="utf-8"?> <svg width="48" height="48" viewBox="0 0 48 48" xmlns="http://www.w3.org/2000/svg"><path class="filled" style="fill:#333" d="M48,24A24,24,0,1,1,24,0,24,24,0,0,1,48,24Zm-9.49-9.31a.85.85,0,0,0,.5-1,1,1,0,0,0-.84-.73.91.91,0,0,0-1,.6.86.86,0,0,1-.8.66,6.7,6.7,0,0,1-1.45,0,22.11,22.11,0,0,1-3.78-1.07c-1.72-.59-3.44-1.2-5.17-1.78-.51-.17-1.05-.26-1.6-.4,0-.47,0-1,0-1.44a.25.25,0,0,1,.14-.17,1.17,1.17,0,0,0,.74-.87,4.5,4.5,0,0,0,.08-1.24A10,10,0,0,0,24.1,3.49,2.18,2.18,0,0,0,24,3.3c-.29.67-.58,1.27-.82,1.9a6.72,6.72,0,0,0-.52,2.57,1.51,1.51,0,0,0,.9,1.56.17.17,0,0,1,.09.13c0,.49,0,1,0,1.49l-.43.08a32,32,0,0,0-4,1.23c-1.72.58-3.44,1.16-5.16,1.71a5.64,5.64,0,0,1-2.2.29,1,1,0,0,1-1-.64.93.93,0,0,0-1-.66.94.94,0,0,0-.83.76.87.87,0,0,0,.6,1l.43.16-.06.16q-3.57,8.2-7.15,16.39a.82.82,0,0,0,0,.64,4.81,4.81,0,0,0,2.16,2.58A9.85,9.85,0,0,0,11.18,36a9.21,9.21,0,0,0,4.24-1.39,4.89,4.89,0,0,0,2.14-2.57.8.8,0,0,0,0-.61Q14,23.34,10.44,15.22L10.35,15c.8,0,1.6,0,2.38-.1a47.77,47.77,0,0,0,6.06-1.08L22.47,13a.28.28,0,0,1,.32.13,2.3,2.3,0,0,0,.61.52.36.36,0,0,1,.22.37q0,11.42,0,22.84v.3a3,3,0,0,0-2,1.31.32.32,0,0,1-.23.09H19.73a.83.83,0,0,0-.82.57,3.54,3.54,0,0,0-.08.41c-.42,0-.84,0-1.26,0a.83.83,0,0,0-.8.59c-.2.61.25,1.13,1,1.13H30.09a3.1,3.1,0,0,0,.47,0,.85.85,0,0,0,.66-1.13.81.81,0,0,0-.8-.56H29.17a.73.73,0,0,1,0-.1.87.87,0,0,0-1-.88c-.47,0-.94,0-1.41,0a.45.45,0,0,1-.39-.19,4.2,4.2,0,0,0-.82-.77,7.67,7.67,0,0,0-1.13-.5v-.19q0-11.46,0-22.92a.29.29,0,0,1,.21-.33c.16-.13.33-.2.45-.32.32-.43.52-.37.86-.27l.31.07c2.4.51,4.8,1,7.22,1.52a15.73,15.73,0,0,0,3.69.32l.55,0-.11.26c-2.31,5.31-4.62,10.61-7,15.91a1.55,1.55,0,0,0,0,1.48l.07.13A5.52,5.52,0,0,0,33.12,35a10,10,0,0,0,5.51,1.1,9.22,9.22,0,0,0,4.71-1.58A4.58,4.58,0,0,0,45.25,32a.71.71,0,0,0,0-.44q-2.93-6.74-5.87-13.48L38,14.9C38.17,14.82,38.35,14.77,38.51,14.69Zm6.58,17H30.6l7.25-16.64ZM10.16,15.09l7.25,16.64H2.91Z"></path></svg> 