<?xml version="1.0" encoding="utf-8"?>  <svg width="48" height="48" viewBox="0 0 48 48" xmlns="http://www.w3.org/2000/svg" role="checkbox" aria-checked="true" tabindex="0"><g><circle class="checkmark__circle" cx="24" cy="24" r="19.3872" stroke-width="6%" fill="none" style="stroke:#AAAAAA"></circle></g><g style="display:initial"><path class="checkmark__check" d="M47.5,1.8c0.4,0.9-1.2,1.9-3.8,5.3c-2.2,2.8-2.7,3.9-5.1,7.1c-3.9,5.3-7.3,10.9-10.5,16.7c-0.7,1.3-2,2-3.1,2.9c-0.9,0.8-2,1.5-3,2.3c-0.2,0.1-0.3,0.4-0.4,0.5c-0.1,0-0.1,0-0.2,0c-0.7-2-1.4-4-2.3-5.9c-1.2-2.9-2.5-5.8-4.4-8.3C14,21.1,13,20,11.5,19.8c0-0.2,0-0.4,0-0.6c1.3-1,2.6-1.8,3.8-2.9c1.7-1.6,4.9-0.5,5.7,1.2c0.9,2,1.9,4.1,2.8,6.1c0.1,0.2,0.1,0.3,0.2,0.5c0.2,0.5,0.3,0.4,0.5,0c1.3-1.8,2.6-3.7,4-5.5c1.8-2.4,2.2-2.4,7.8-9.7c3.9-5.1,4.6-6.7,7.1-7.6c1-0.4,1.8-0.5,2.4-0.5C46.7,0.8,47.3,1.2,47.5,1.8z" style="fill:#333"></path></g></svg>  