<?xml version="1.0" encoding="utf-8"?> <svg width="48" height="48" viewBox="0 0 48 48" xmlns="http://www.w3.org/2000/svg"><path class="filled" style="fill:#333" d="M48,22.24v3.83c-.11.65-.24,1.3-.34,2a24,24,0,1,1-30-27C19.11.64,20.6.43,22.07.14H25.9a4.41,4.41,0,0,0,.66.17A23.9,23.9,0,0,1,47.08,17.67C47.49,19.17,47.7,20.72,48,22.24Zm-4.27,7.24c-.74-.21-1.3,0-1.56-.75-1.2-3.53-2.49-7-3.77-10.54-.16-.43-.13-.64.28-.91A2.81,2.81,0,0,0,39.93,14a2.85,2.85,0,0,0-3-2c-2.37.09-4.74.24-7.12.31-1.56,0-3.11,0-4.67,0L24.35,9a8.62,8.62,0,0,0-.7,2.39c-.09.79-.45,1-1.19.94-3.65-.15-7.3-.26-10.94-.37a2.78,2.78,0,0,0-2.94,2.2,2.94,2.94,0,0,0,1.78,3.44l-.26.75Q8.36,23.16,6.62,28c-.28.77-.35,1.72-1.6,1.36a1.9,1.9,0,0,0,1.25,1.78,17.5,17.5,0,0,0,3.79,1.12,10.54,10.54,0,0,0,6.35-1,2.24,2.24,0,0,0,1.49-1.85c-1.13-.18-1.13-.18-1.56-1.34-.5-1.39-1-2.77-1.51-4.16l-2.3-6.44a3.09,3.09,0,0,0,1.57-3.81A23.19,23.19,0,0,0,22.83,16a2.05,2.05,0,0,1,.07.33c0,4.41.1,8.81.13,13.22a2,2,0,0,1-.36.92C22,31.55,21.3,32.61,22,34a8.37,8.37,0,0,1,.4,1.52c-2.16.51-4.09,1-5.39,2.85H31.59c-1.33-1.92-3.29-2.34-5.33-2.83a3.66,3.66,0,0,1,.16-1.23,2.89,2.89,0,0,0-.06-3,4.54,4.54,0,0,1-.81-2c0-3.88,0-7.77.07-11.65,0-.54.09-1.08.13-1.64a23.24,23.24,0,0,0,8.72-2.28A3.13,3.13,0,0,0,36,17.53c-1.28,3.56-2.54,7-3.79,10.53-.27.76-.4,1.63-1.58,1.28a2.26,2.26,0,0,0,1.46,1.94,11.29,11.29,0,0,0,6.44,1,7.58,7.58,0,0,0,4.07-1.35A7.9,7.9,0,0,0,43.73,29.49Z"></path><path class="filled" style="fill:#333" d="M36.56,29.33H32.83l3.62-10,.11,0Z"></path><path class="filled" style="fill:#333" d="M37.66,19.07l3.69,10.24H37.66Z"></path><path class="filled" style="fill:#333" d="M15.72,29.33H12.05V19.15Z"></path><path class="filled" style="fill:#333" d="M7.21,29.31l3.57-9.93.12,0v9.91Z"></path><path class="filled" style="fill:#333" d="M28,47.82l1-.7a.29.29,0,0,1,.35,0l.44.31Z"></path></svg> 