<?xml version="1.0" encoding="utf-8"?>  <svg width="48" height="48" viewBox="0 0 48 48" xmlns="http://www.w3.org/2000/svg" role="checkbox" aria-checked="true" tabindex="0"><g><circle class="checkmark__circle" cx="24" cy="24" r="19.3872" stroke-width="6%" fill="none" style="stroke:#AAAAAA"></circle></g><g style="display:initial"><path class="checkmark__check" d="M16.16,6.55l3.11-.38.88.31L21.2,8l3.52,7.32H25l8.63-10,3.85-.41.28-.21,1.73,2.18-11,14.5,0,.89,5.49,11.79-.17,1.26-1.41,1.74.25.77-.83,1.06-1.21.61-3.34-3.85-4.08-6.49L23,28.83,12.41,45.2,10,46.64H8.35l-1.6-2-.51-3.58L19.3,22.17,14.85,9.45l.48-1.93.83-1Z" style="fill:#333"></path></g></svg>  