<?xml version="1.0" encoding="utf-8"?> <svg width="48" height="48" viewBox="0 0 48 48" xmlns="http://www.w3.org/2000/svg"><path class="filled" style="fill:#333" d="M48,3.59a3,3,0,0,0-.75,1.09,5.36,5.36,0,0,0-.39,2.11c0,.54,0,1.09,0,1.64a.24.24,0,0,1-.11.24A3.9,3.9,0,0,0,46.3,9a5.47,5.47,0,0,1-1.78,1.09l-.08,0h0L47,10c0,.33,0,.64,0,1a21.84,21.84,0,0,1-1.18,6.6c-.62,1.86-1.27,3.71-1.91,5.56a.35.35,0,0,1-.22.23,9.06,9.06,0,0,1-2.56.64,10.26,10.26,0,0,1-2.48,0,8.48,8.48,0,0,0,2.26.9,4.9,4.9,0,0,0,2.44,0,1.11,1.11,0,0,1,0,.12c-.44,1.37-.88,2.74-1.45,4.06a12,12,0,0,1-2.31,3.64.47.47,0,0,1-.17.11,10.69,10.69,0,0,1-4.4.6,14.73,14.73,0,0,1-3.48-.69l-.08,0v0l2.94,1.1,3,1.06-.12.07A75.12,75.12,0,0,1,28,38.82,30.72,30.72,0,0,1,23.62,40a10.09,10.09,0,0,1-6-.52l-.26-.12,1.09-.51c2.07-1,4.14-2,6.11-3.16a30.74,30.74,0,0,0,5.11-3.88,45.6,45.6,0,0,0,3.85-4.07c.83-1,1.65-2,2.43-3a29.28,29.28,0,0,0,2.49-4.07A79.57,79.57,0,0,0,42,12.93c.71-1.77,1.36-3.56,2-5.33a.26.26,0,0,0,0-.15l-.35.81c-1.15,2.74-2.29,5.47-3.64,8.12a51.16,51.16,0,0,1-5,8.05,40.34,40.34,0,0,1-5.55,5.91,43.34,43.34,0,0,1-6.18,4.38c-2.26,1.36-4.57,2.61-7,3.74l-.15.08a3.36,3.36,0,0,0,1,.93L16.06,40c-2.19,1-4.41,1.91-6.67,2.71a34.11,34.11,0,0,1-5.07,1.44,9.66,9.66,0,0,1-2.36.2,2.55,2.55,0,0,1-1.48-.45,2.36,2.36,0,0,1-.4-.46,52.78,52.78,0,0,0,16.1-4.92,6.62,6.62,0,0,1-.37-.77,2.73,2.73,0,0,1,.13-1.84,9.07,9.07,0,0,1,1.5-2.46A33.78,33.78,0,0,1,21,29.82l1.87-1.71.4-.33a4,4,0,0,0,1.34,2.14,4.1,4.1,0,0,0,1.73.84l-.27-.2-.28-.21a4,4,0,0,1-1.42-1.81,2.87,2.87,0,0,1,.16-2.34c.92-1.76,1.85-3.51,2.88-5.2a32.12,32.12,0,0,1,3.86-5.28c.83-.89,1.7-1.74,2.58-2.64.06.18.1.34.15.49a7.24,7.24,0,0,0,1.76,2.91,3.72,3.72,0,0,0,1.18.8l.18.07a1.62,1.62,0,0,0-.08-.17c-.38-.58-.75-1.18-1.15-1.75a6.65,6.65,0,0,1-1.09-2,8.11,8.11,0,0,1-.17-.88.28.28,0,0,1,.07-.21A64,64,0,0,1,39.5,7.94,25.48,25.48,0,0,1,44.62,4.7,16.05,16.05,0,0,1,48,3.56Z"></path></svg> 