<?xml version="1.0" encoding="utf-8"?> <svg width="48" height="48" viewBox="0 0 48 48" xmlns="http://www.w3.org/2000/svg"><path class="filled" style="fill:#333" d="M26.2,24c-.5,1.14-1,2.23-1.45,3.34-.08.19.05.48.15.7a2.19,2.19,0,0,1-.33,2.55,2,2,0,0,1-2.41.54c-3.36-1.46-6.71-2.92-10-4.42a2,2,0,0,1-1.2-2.17,2.14,2.14,0,0,1,1.6-1.9,1.49,1.49,0,0,0,.82-.68q2.5-5.54,4.92-11.12a1.56,1.56,0,0,0-.07-1.06,2.21,2.21,0,0,1,.35-2.47,2,2,0,0,1,2.41-.57q5,2.18,10,4.42a2,2,0,0,1,1.21,2.17,2.14,2.14,0,0,1-1.57,1.92,1.72,1.72,0,0,0-.88.76c-.52,1-1,2.13-1.45,3.28l7,2.82,11,4.43c1.36.55,1.92,1.29,1.69,2.71A6.73,6.73,0,0,1,46.81,32c-.83,1.17-1.95,1.27-3.3.59L26.83,24.26ZM15.45,23.5l1.76.76,5.32-12.05-1.75-.77Z"></path><path class="filled" style="fill:#333" d="M5.6,41.46a4.51,4.51,0,0,1,1.81-3.74,1.71,1.71,0,0,0,.72-1.56c0-2,.23-2.27,2.22-2.27h16c1.53,0,2,.38,1.9,1.91A2.34,2.34,0,0,0,29.15,38a3.92,3.92,0,0,1,1.49,3.49Z"></path><path class="filled" style="fill:#333" d="M9,26.35c-.14,1.16-1.09,1.76-1.87,1.35-2-1-3.89-2.13-5.79-3.27A1.13,1.13,0,0,1,1,22.78a1.23,1.23,0,0,1,1.78-.49c1.15.61,2.28,1.27,3.42,1.9a17,17,0,0,1,1.95,1.12A4.55,4.55,0,0,1,9,26.35Z"></path><path class="filled" style="fill:#333" d="M1.45,33.55c-.83,0-1.32-.37-1.43-1.08A1.17,1.17,0,0,1,1,31q3.24-.53,6.51-.92a1.15,1.15,0,0,1,1.31,1.07,1.18,1.18,0,0,1-1,1.48C5.68,33,3.51,33.26,1.45,33.55Z"></path></svg> 