<?xml version="1.0" encoding="utf-8"?> <svg width="48" height="48" viewBox="0 0 24 24" xmlns="http://www.w3.org/2000/svg"><path class="filled" style="fill:#333" d="M1,17.5C1,12.3,1,7,1,1.8c0-0.1,0.1-0.2,0.1-0.3c0.1-0.3,0.2-0.6,0.5-0.8c0.4-0.4,0.8-0.5,1.3-0.6c0.1,0,0.3,0,0.4-0.1 C9.1,0,15,0,20.9,0c0.1,0,0.3,0,0.4,0.1c0.4,0.1,0.7,0.2,1.1,0.4c0.3,0.2,0.5,0.5,0.5,0.9C23,1.6,23,1.7,23,1.8c0,5.2,0,10.5,0,15.7 c-0.1,0.2-0.1,0.5-0.2,0.7c-0.2,0.4-0.4,0.6-0.7,0.7c-0.5,0.2-1,0.3-1.6,0.3c-1.1,0-2.1,0-3.2,0c-0.1,0-0.1,0-0.2,0 c0,1.6,0,3.2,0,4.8l0,0l0,0c-0.8-0.7-1.7-1.4-2.6-2.1c-1-0.9-2.1-1.7-3.1-2.6c-0.1,0-0.2-0.1-0.2-0.1c-2.3,0-4.5,0-6.8,0 c-0.5,0-1,0-1.6-0.1c-0.4,0-0.7-0.2-1.1-0.4c-0.3-0.2-0.5-0.5-0.5-1C1.1,17.7,1.1,17.6,1,17.5z M12,8.4c-2.2,0-4.3,0-6.5,0 c-0.2,0-0.4,0-0.6,0c-0.1,0-0.2,0.1-0.2,0.2c0,0.2,0,0.5,0,0.7c0,0.4,0,0.9,0,1.3c0,0.2,0.1,0.2,0.2,0.2c0.2,0,0.4,0,0.5,0 c4.3,0,8.7,0,13,0c0.3,0,0.5,0,0.7,0c0.1,0,0.3-0.1,0.3-0.2c0-0.2,0-0.5,0-0.7c0-0.4,0-0.8,0-1.3c0-0.2-0.1-0.2-0.2-0.2 c-0.2,0-0.3,0-0.5,0C16.5,8.4,14.3,8.4,12,8.4z"></path></svg> 