<?xml version="1.0" encoding="utf-8"?> <svg width="48" height="48" viewBox="0 0 48 48" xmlns="http://www.w3.org/2000/svg"><path class="filled" style="fill:#333" d="M39.77,15.57l1.55,3.56q3.31,7.6,6.62,15.2a.8.8,0,0,1,0,.5,5.17,5.17,0,0,1-2.16,2.82,10.4,10.4,0,0,1-5.31,1.78,11.3,11.3,0,0,1-6.22-1.24,6.23,6.23,0,0,1-2.69-2.51l-.08-.15a1.75,1.75,0,0,1-.05-1.67c2.64-6,5.24-12,7.85-17.95l.12-.3-.62,0a17.75,17.75,0,0,1-4.17-.36c-2.72-.54-5.43-1.14-8.14-1.72l-.35-.08c-.39-.11-.74-.16-1,.31a1,1,0,0,1-.51.37.33.33,0,0,0-.23.37q0,12.93,0,25.85v.21a8.65,8.65,0,0,1,1.28.57,4.74,4.74,0,0,1,.92.87.5.5,0,0,0,.44.22c.53,0,1.06,0,1.59,0a1,1,0,0,1,1.13,1,.83.83,0,0,0,0,.11h1.41a.92.92,0,0,1,.9.63,1,1,0,0,1-.75,1.28,3.5,3.5,0,0,1-.53,0H16.95c-.82,0-1.33-.58-1.1-1.27a.94.94,0,0,1,.91-.66c.47,0,.95,0,1.42,0a4,4,0,0,1,.1-.46.94.94,0,0,1,.92-.64H21a.36.36,0,0,0,.26-.1,3.34,3.34,0,0,1,2.3-1.48v-.34q0-12.88,0-25.77a.4.4,0,0,0-.25-.42,2.59,2.59,0,0,1-.68-.59.32.32,0,0,0-.36-.15l-4.14.92a53.89,53.89,0,0,1-6.84,1.22c-.89.08-1.78.07-2.69.11l.1.25q4,9.16,8,18.31a.9.9,0,0,1,0,.69,5.52,5.52,0,0,1-2.41,2.9,10.39,10.39,0,0,1-4.78,1.57,11.11,11.11,0,0,1-7-1.55A5.42,5.42,0,0,1,.05,35a.93.93,0,0,1,0-.72q4-9.24,8.07-18.49l.07-.18-.49-.18a1,1,0,0,1-.68-1.14A1.06,1.06,0,0,1,8,13.39a1,1,0,0,1,1.14.74,1.12,1.12,0,0,0,1.12.72,6.36,6.36,0,0,0,2.48-.33c1.95-.62,3.89-1.27,5.83-1.93a36.15,36.15,0,0,1,4.5-1.38l.49-.09c0-.57,0-1.12,0-1.68a.19.19,0,0,0-.1-.14,1.7,1.7,0,0,1-1-1.76A7.58,7.58,0,0,1,23,4.64c.27-.71.6-1.39.92-2.15a2.46,2.46,0,0,1,.16.21,11.24,11.24,0,0,1,1.42,4.19,5.08,5.08,0,0,1-.09,1.4,1.32,1.32,0,0,1-.83,1,.28.28,0,0,0-.15.19c0,.55,0,1.09,0,1.63.62.15,1.23.25,1.81.45,1.95.65,3.89,1.34,5.83,2a24.94,24.94,0,0,0,4.26,1.21,7.56,7.56,0,0,0,1.64,0,1,1,0,0,0,.91-.74,1,1,0,0,1,1.1-.67,1.07,1.07,0,0,1,.94.82,1,1,0,0,1-.56,1.12C40.19,15.42,40,15.48,39.77,15.57Zm-.15.21L31.44,34.55H47.79ZM.21,34.55H16.56L8.39,15.78Z"></path></svg> 